<svg width="380" height="106" viewBox="0 0 380 106" fill="none" xmlns="http://www.w3.org/2000/svg">
<path d="M48.76 105.104C47.9067 105.019 47.2667 104.507 46.84 103.568C46.7547 103.483 46.712 103.269 46.712 102.928C46.6267 102.245 46.4987 101.563 46.328 100.88C46.2427 100.197 46.2427 99.5147 46.328 98.832V98.192C46.2427 97.424 46.2 96.656 46.2 95.888C46.2 95.12 46.1573 94.3947 46.072 93.712C45.9013 92.2613 45.3893 91.152 44.536 90.384L43.384 89.232C42.9573 88.72 42.4027 88.5493 41.72 88.72C41.208 88.8053 40.696 88.848 40.184 88.848C39.7573 88.848 39.288 88.8053 38.776 88.72C38.4347 88.72 38.0507 88.7627 37.624 88.848C37.2827 88.848 36.8987 88.848 36.472 88.848C36.1307 88.848 35.7467 88.848 35.32 88.848C34.9787 88.7627 34.6373 88.7627 34.296 88.848C33.9547 88.9333 33.6133 88.976 33.272 88.976C33.016 88.976 32.76 88.976 32.504 88.976H28.152C27.2133 88.976 26.232 89.104 25.208 89.36L22.136 90.128C21.112 90.4693 20.088 90.7253 19.064 90.896C18.7227 90.9813 18.3813 91.0667 18.04 91.152C17.6987 91.2373 17.3573 91.3653 17.016 91.536C15.736 92.1333 14.4987 92.4747 13.304 92.56C12.536 92.7307 11.9813 93.072 11.64 93.584L11 94.352C10.8293 94.4373 10.6587 94.5227 10.488 94.608C10.3173 94.7787 10.1467 94.9493 9.976 95.12C9.37867 95.4613 8.73867 95.4613 8.056 95.12C7.288 94.6933 6.81867 94.224 6.648 93.712C6.648 93.6267 6.60533 93.5413 6.52 93.456C6.52 93.456 6.52 93.4133 6.52 93.328C5.92267 91.8773 4.94133 90.5973 3.576 89.488C3.23467 89.232 2.936 88.9333 2.68 88.592C2.59467 88.336 2.46667 88.1227 2.296 87.952C2.12533 87.696 1.95467 87.4827 1.784 87.312L1.016 86.16C0.674667 85.5627 0.546667 84.88 0.632 84.112C0.717334 83.6853 0.76 83.2587 0.76 82.832C0.845334 82.32 0.930667 81.8507 1.016 81.424V80.656C1.016 79.7173 1.016 78.7787 1.016 77.84C1.016 76.816 1.05867 75.8773 1.144 75.024V73.744C1.31467 73.4027 1.35733 73.104 1.272 72.848C1.272 72.5067 1.272 72.1653 1.272 71.824C1.35733 70.7147 1.35733 69.648 1.272 68.624C1.272 67.5147 1.31467 66.4053 1.4 65.296L1.784 59.536C1.86933 58.5973 1.912 57.7013 1.912 56.848C1.99733 55.9947 2.04 55.1413 2.04 54.288V53.904C2.21067 52.88 2.296 51.856 2.296 50.832C2.296 49.808 2.296 48.7413 2.296 47.632V38.8C2.21067 37.8613 2.12533 36.9227 2.04 35.984C2.04 35.0453 2.04 34.1067 2.04 33.168C2.04 32.144 1.99733 31.12 1.912 30.096C1.82667 28.9867 1.69867 27.8773 1.528 26.768C1.44267 26.0853 1.31467 25.36 1.144 24.592C1.05867 23.824 1.016 23.056 1.016 22.288C1.016 22.1173 0.973334 21.9467 0.888 21.776C0.888 21.6053 0.888 21.4347 0.888 21.264C0.376 18.96 0.12 16.6133 0.12 14.224V8.848C0.12 8.25066 0.12 7.696 0.12 7.184C0.205334 6.58666 0.290667 5.98933 0.376 5.392C0.546667 4.368 0.888 3.6 1.4 3.088L2.04 2.31999C2.552 1.63733 3.14933 1.168 3.832 0.911995C4.51467 0.570661 5.24 0.357328 6.008 0.271996H6.904C8.184 0.271996 9.208 0.741328 9.976 1.67999C10.1467 1.76533 10.2747 1.85066 10.36 1.936C10.4453 2.02133 10.5307 2.10666 10.616 2.19199C11.0427 2.53333 11.2987 2.91733 11.384 3.34399C11.8107 4.19733 12.024 4.75199 12.024 5.008C12.1093 5.264 12.152 5.86133 12.152 6.8V7.696C12.152 8.29333 12.152 8.89066 12.152 9.488C12.152 10 12.1947 10.5547 12.28 11.152C12.3653 11.3227 12.408 11.5787 12.408 11.92C12.408 12.5173 12.408 13.1147 12.408 13.712C12.4933 14.3093 12.5787 14.9067 12.664 15.504C12.7493 16.3573 12.8347 17.2107 12.92 18.064C13.0053 18.832 13.048 19.6853 13.048 20.624C13.048 20.7947 13.048 21.008 13.048 21.264C13.1333 21.4347 13.176 21.6053 13.176 21.776C13.176 21.8613 13.176 21.9893 13.176 22.16C13.2613 22.2453 13.304 22.3733 13.304 22.544L13.688 29.072C13.7733 29.4987 13.816 29.968 13.816 30.48C13.816 30.9067 13.816 31.376 13.816 31.888C13.9013 31.9733 13.944 32.1867 13.944 32.528C13.8587 32.9547 13.816 33.424 13.816 33.936C13.816 34.3627 13.8587 34.7893 13.944 35.216V43.664C13.8587 44.176 13.8587 44.688 13.944 45.2V45.968C13.8587 46.6507 13.816 47.376 13.816 48.144C13.816 48.8267 13.7733 49.552 13.688 50.32C13.688 50.9173 13.688 51.5573 13.688 52.24C13.688 52.8373 13.6453 53.4773 13.56 54.16C13.4747 54.5013 13.432 54.8853 13.432 55.312C13.432 55.7387 13.432 56.1653 13.432 56.592C13.432 56.9333 13.3893 57.36 13.304 57.872C13.304 58.2987 13.2613 58.7253 13.176 59.152V59.536C13.0907 60.3893 13.0053 61.2427 12.92 62.096C12.92 62.9493 12.8773 63.8453 12.792 64.784C12.7067 65.2107 12.664 65.68 12.664 66.192C12.664 66.704 12.6213 67.216 12.536 67.728C12.4507 68.0693 12.408 68.496 12.408 69.008C12.408 69.4347 12.408 69.8613 12.408 70.288C12.408 70.7147 12.3653 71.1413 12.28 71.568C12.1947 72.5067 12.152 73.4453 12.152 74.384C12.152 75.2373 12.152 76.1333 12.152 77.072V77.2C12.3227 77.6267 12.536 77.84 12.792 77.84L15.352 78.224C17.4 78.48 19.4053 78.608 21.368 78.608C21.88 78.608 22.3067 78.5653 22.648 78.48C23.0747 78.3947 23.544 78.352 24.056 78.352C24.568 78.352 25.0373 78.3093 25.464 78.224H29.048C29.6453 78.224 30.2427 78.1813 30.84 78.096C31.4373 77.9253 32.0347 77.7973 32.632 77.712H33.272C34.2107 77.712 35.1493 77.6693 36.088 77.584C37.0267 77.4133 37.9653 77.328 38.904 77.328H43.128C44.3227 77.328 45.3467 77.072 46.2 76.56C46.8827 76.304 47.5227 76.1333 48.12 76.048C48.8027 75.9627 49.4853 75.8773 50.168 75.792C51.192 75.792 52.088 76.048 52.856 76.56C54.5627 77.584 55.672 78.992 56.184 80.784C56.3547 81.3813 56.44 82.0213 56.44 82.704C56.5253 83.3867 56.5253 84.0693 56.44 84.752C56.3547 85.52 56.184 86.2453 55.928 86.928C55.672 87.5253 55.3307 88.1653 54.904 88.848L53.752 90.512C53.24 91.4507 52.856 92.3893 52.6 93.328C52.5147 94.096 52.3867 94.8213 52.216 95.504C52.0453 96.272 51.96 97.04 51.96 97.808C51.96 98.1493 51.9173 98.4907 51.832 98.832C51.832 99.1733 51.832 99.5147 51.832 99.856C51.7467 100.197 51.704 100.496 51.704 100.752C51.704 101.008 51.704 101.307 51.704 101.648C51.704 102.331 51.4907 103.099 51.064 103.952C50.552 104.805 49.784 105.189 48.76 105.104ZM77.11 91.28C76.598 91.28 76.2567 91.2373 76.086 91.152C75.7447 90.9813 75.446 90.8533 75.19 90.768C74.934 90.6827 74.678 90.5973 74.422 90.512C74.166 90.3413 73.91 90.1707 73.654 90C73.4833 89.744 73.3127 89.488 73.142 89.232C72.9713 89.0613 72.8007 88.976 72.63 88.976C72.118 88.976 71.862 88.72 71.862 88.208C71.7767 87.696 71.6913 87.184 71.606 86.672C71.5207 86.16 71.4353 85.648 71.35 85.136C71.2647 84.368 71.1793 83.6 71.094 82.832C71.094 82.064 71.0087 81.3387 70.838 80.656V79.504C70.838 79.1627 70.7953 78.864 70.71 78.608C70.71 78.352 70.71 78.0533 70.71 77.712C70.5393 77.2853 70.5393 76.944 70.71 76.688C70.8807 75.152 70.8807 73.616 70.71 72.08C70.6247 71.6533 70.582 71.2267 70.582 70.8C70.582 70.3733 70.5393 69.9467 70.454 69.52C70.454 68.6667 70.454 67.8133 70.454 66.96C70.454 66.0213 70.3687 65.1253 70.198 64.272V62.224C70.198 61.5413 70.1553 60.9013 70.07 60.304C70.07 59.7067 70.0273 59.1093 69.942 58.512C69.8567 57.744 69.7713 56.976 69.686 56.208C69.686 55.44 69.6433 54.672 69.558 53.904C69.4727 53.7333 69.43 53.4347 69.43 53.008C69.3447 52.5813 69.2593 52.1547 69.174 51.728C69.174 51.216 69.174 50.7467 69.174 50.32L68.79 43.92C68.7047 43.2373 68.6193 42.5973 68.534 42C68.534 41.3173 68.534 40.6773 68.534 40.08C68.4487 39.056 68.3633 38.032 68.278 37.008C68.1927 35.984 68.1073 35.0027 68.022 34.064C68.022 33.8933 67.9793 33.7227 67.894 33.552C67.894 33.3813 67.894 33.2533 67.894 33.168C67.894 32.144 67.8513 31.12 67.766 30.096C67.6807 29.072 67.5953 28.0053 67.51 26.896L67.126 23.312C66.87 21.9467 66.8273 20.4533 66.998 18.832C66.998 18.064 67.2967 17.424 67.894 16.912C68.0647 16.7413 68.1927 16.656 68.278 16.656C68.3633 16.5707 68.4487 16.4853 68.534 16.4C68.9607 16.3147 69.174 16.016 69.174 15.504C69.174 15.3333 69.3447 15.248 69.686 15.248H70.326C70.4113 15.248 70.454 15.248 70.454 15.248C70.5393 15.1627 70.6247 15.12 70.71 15.12C70.8807 15.0347 71.0087 14.9493 71.094 14.864C71.2647 14.6933 71.3927 14.608 71.478 14.608C71.6487 14.608 71.8193 14.6507 71.99 14.736C72.1607 14.736 72.3313 14.7787 72.502 14.864C72.6727 14.864 72.8007 14.8213 72.886 14.736C73.3127 14.6507 73.7393 14.6933 74.166 14.864C74.678 14.9493 75.1047 15.0773 75.446 15.248C75.958 15.3333 76.342 15.6747 76.598 16.272C76.854 17.04 77.0673 17.808 77.238 18.576C77.494 19.2587 77.6647 19.984 77.75 20.752V21.776C77.9207 22.3733 78.006 23.0133 78.006 23.696C78.006 24.2933 78.006 24.9333 78.006 25.616C78.006 26.2133 78.006 26.8107 78.006 27.408C78.0913 27.92 78.1767 28.432 78.262 28.944C78.262 29.2 78.262 29.456 78.262 29.712C78.262 29.968 78.3047 30.224 78.39 30.48C78.39 30.992 78.39 31.504 78.39 32.016C78.4753 32.528 78.5607 33.0827 78.646 33.68C78.7313 34.6187 78.8167 35.6 78.902 36.624C78.9873 37.648 79.03 38.672 79.03 39.696C79.03 40.1227 79.03 40.592 79.03 41.104C79.03 41.5307 79.0727 41.9573 79.158 42.384C79.2433 42.64 79.286 42.896 79.286 43.152C79.286 43.408 79.286 43.664 79.286 43.92V46.48C79.286 46.992 79.3287 47.4187 79.414 47.76C79.5847 48.3573 79.6273 48.9547 79.542 49.552C79.542 50.064 79.5847 50.6187 79.67 51.216L80.054 57.104C80.1393 57.9573 80.182 58.8533 80.182 59.792C80.2673 60.6453 80.31 61.5413 80.31 62.48C80.31 62.8213 80.31 63.2053 80.31 63.632C80.31 63.9733 80.3527 64.3147 80.438 64.656C80.5233 64.912 80.566 65.168 80.566 65.424C80.566 65.68 80.566 65.936 80.566 66.192C80.6513 66.2773 80.6513 66.448 80.566 66.704C80.566 66.8747 80.6087 67.0453 80.694 67.216C80.8647 67.8133 80.95 68.4107 80.95 69.008C80.95 69.6053 80.95 70.2453 80.95 70.928C80.95 71.2693 80.95 71.6533 80.95 72.08C81.0353 72.4213 81.078 72.8053 81.078 73.232C81.1633 73.6587 81.206 74.128 81.206 74.64C81.206 75.152 81.206 75.6213 81.206 76.048C81.2913 76.4747 81.334 76.944 81.334 77.456C81.334 77.8827 81.3767 78.3093 81.462 78.736C81.5473 78.9067 81.59 79.0773 81.59 79.248C81.59 80.1867 81.6753 81.1253 81.846 82.064C82.0167 83.0027 82.1873 83.9413 82.358 84.88C82.4433 85.136 82.486 85.4347 82.486 85.776C82.486 86.032 82.486 86.288 82.486 86.544C82.486 86.8 82.4007 87.0133 82.23 87.184C81.8887 87.44 81.6327 87.952 81.462 88.72C81.462 88.976 81.334 89.1893 81.078 89.36C80.4807 89.616 79.9687 89.9573 79.542 90.384C78.8593 90.9813 78.0487 91.28 77.11 91.28ZM107.098 90.384C106.415 90.64 105.647 90.5547 104.794 90.128L102.234 88.976C101.807 88.8053 101.466 88.4213 101.21 87.824L100.826 87.056C100.655 86.6293 100.442 86.3307 100.186 86.16C99.7593 85.8187 99.4607 85.2213 99.29 84.368C99.1193 83.5147 98.9913 82.6613 98.906 81.808C98.8207 80.9547 98.7353 80.1013 98.65 79.248C98.5647 78.5653 98.522 77.8827 98.522 77.2C98.522 76.5173 98.522 75.8773 98.522 75.28L98.65 74.384C98.8207 73.9573 98.906 73.5307 98.906 73.104C98.906 72.6773 98.906 72.2933 98.906 71.952V48.656C99.0767 47.4613 99.162 46.2667 99.162 45.072C99.162 43.792 99.162 42.5547 99.162 41.36C99.2473 40.1653 99.29 39.0133 99.29 37.904C99.29 36.7093 99.2047 35.5573 99.034 34.448C98.9487 34.0213 98.906 33.552 98.906 33.04C98.906 32.528 98.906 32.016 98.906 31.504C98.906 30.736 98.906 29.968 98.906 29.2C98.906 28.432 98.8207 27.664 98.65 26.896V26.512C98.65 25.3173 98.5647 24.1653 98.394 23.056C98.3087 21.8613 98.2233 20.7093 98.138 19.6C98.0527 18.9173 97.9673 18.2773 97.882 17.68C97.7967 17.0827 97.6687 16.4853 97.498 15.888C97.4127 15.5467 97.37 15.2053 97.37 14.864C97.37 14.5227 97.37 14.1813 97.37 13.84C97.37 13.2427 97.4553 12.688 97.626 12.176C97.7967 11.5787 97.9673 11.024 98.138 10.512C98.2233 10.3413 98.4367 10.0853 98.778 9.744C98.9487 9.57333 99.1193 9.44533 99.29 9.35999C99.4607 9.27466 99.5887 9.18933 99.674 9.104C100.186 8.42133 100.869 8.12266 101.722 8.20799C101.893 8.29333 102.149 8.25066 102.49 8.07999C102.917 7.73866 103.301 7.69599 103.642 7.952C103.898 8.12266 104.325 8.12266 104.922 7.952C105.178 7.952 105.391 8.03733 105.562 8.20799C105.818 8.54933 106.159 8.80533 106.586 8.976C107.013 9.14666 107.311 9.40266 107.482 9.744C107.738 10 107.994 10.256 108.25 10.512C108.421 10.768 108.591 11.024 108.762 11.28C109.018 11.4507 109.146 11.7067 109.146 12.048C109.231 12.3893 109.231 12.7307 109.146 13.072C109.146 13.328 109.146 13.6267 109.146 13.968C109.146 14.736 109.189 15.5467 109.274 16.4C109.445 17.168 109.573 17.936 109.658 18.704C109.829 19.5573 109.957 20.4533 110.042 21.392C110.127 22.2453 110.213 23.1413 110.298 24.08V25.36C110.469 25.9573 110.554 26.5547 110.554 27.152C110.554 27.7493 110.597 28.3467 110.682 28.944V29.072C110.767 30.096 110.853 31.12 110.938 32.144C111.023 33.168 111.109 34.192 111.194 35.216C111.279 35.6427 111.322 36.112 111.322 36.624C111.322 37.0507 111.322 37.4773 111.322 37.904V71.952C111.322 72.72 111.365 73.488 111.45 74.256C111.621 75.024 111.749 75.7493 111.834 76.432C111.834 76.8587 112.09 77.072 112.602 77.072C113.37 77.2427 114.095 77.2427 114.778 77.072C115.717 76.9013 116.613 76.816 117.466 76.816C118.405 76.816 119.343 76.816 120.282 76.816C121.221 76.816 122.117 76.816 122.97 76.816C123.909 76.7307 124.805 76.6453 125.658 76.56H127.066C127.749 76.6453 128.346 76.7307 128.858 76.816C129.455 76.816 130.053 76.816 130.65 76.816C131.589 76.816 132.527 76.8587 133.466 76.944C134.49 76.944 135.471 76.9867 136.41 77.072C137.093 77.1573 137.775 77.2 138.458 77.2C139.226 77.2 139.994 77.2 140.762 77.2H141.402C143.109 77.1147 144.645 77.5413 146.01 78.48C146.607 78.736 147.034 79.1627 147.29 79.76C147.461 80.1013 147.589 80.4427 147.674 80.784C147.845 81.04 147.973 81.3813 148.058 81.808C148.143 82.1493 148.186 82.4907 148.186 82.832C148.271 83.088 148.357 83.3867 148.442 83.728C148.698 84.496 148.613 85.3493 148.186 86.288C148.101 86.544 148.015 86.8 147.93 87.056C147.845 87.312 147.717 87.568 147.546 87.824C147.375 88.08 147.162 88.2933 146.906 88.464C146.906 88.464 146.735 88.5493 146.394 88.72C145.711 89.3173 144.943 89.7013 144.09 89.872C143.322 90.0427 142.469 90.2133 141.53 90.384L140.25 90.256C138.97 89.8293 137.69 89.5733 136.41 89.488C136.069 89.4027 135.685 89.36 135.258 89.36C134.831 89.2747 134.405 89.232 133.978 89.232C133.381 89.232 132.783 89.232 132.186 89.232C131.589 89.1467 130.949 89.0613 130.266 88.976L128.986 88.848C128.218 88.9333 127.45 88.976 126.682 88.976C125.914 88.8907 125.146 88.8907 124.378 88.976C124.037 88.976 123.695 88.976 123.354 88.976C123.013 88.8907 122.671 88.848 122.33 88.848C121.647 88.848 120.965 88.848 120.282 88.848C119.685 88.848 119.045 88.9333 118.362 89.104C118.021 89.1893 117.594 89.2747 117.082 89.36C116.655 89.36 116.229 89.36 115.802 89.36C114.522 89.4453 113.242 89.5733 111.962 89.744C110.682 89.8293 109.445 90 108.25 90.256C107.994 90.3413 107.61 90.384 107.098 90.384ZM168.985 91.28C168.473 91.28 168.132 91.2373 167.961 91.152C167.62 90.9813 167.321 90.8533 167.065 90.768C166.809 90.6827 166.553 90.5973 166.297 90.512C166.041 90.3413 165.785 90.1707 165.529 90C165.358 89.744 165.188 89.488 165.017 89.232C164.846 89.0613 164.676 88.976 164.505 88.976C163.993 88.976 163.737 88.72 163.737 88.208C163.652 87.696 163.566 87.184 163.481 86.672C163.396 86.16 163.31 85.648 163.225 85.136C163.14 84.368 163.054 83.6 162.969 82.832C162.969 82.064 162.884 81.3387 162.713 80.656V79.504C162.713 79.1627 162.67 78.864 162.585 78.608C162.585 78.352 162.585 78.0533 162.585 77.712C162.414 77.2853 162.414 76.944 162.585 76.688C162.756 75.152 162.756 73.616 162.585 72.08C162.5 71.6533 162.457 71.2267 162.457 70.8C162.457 70.3733 162.414 69.9467 162.329 69.52C162.329 68.6667 162.329 67.8133 162.329 66.96C162.329 66.0213 162.244 65.1253 162.073 64.272V62.224C162.073 61.5413 162.03 60.9013 161.945 60.304C161.945 59.7067 161.902 59.1093 161.817 58.512C161.732 57.744 161.646 56.976 161.561 56.208C161.561 55.44 161.518 54.672 161.433 53.904C161.348 53.7333 161.305 53.4347 161.305 53.008C161.22 52.5813 161.134 52.1547 161.049 51.728C161.049 51.216 161.049 50.7467 161.049 50.32L160.665 43.92C160.58 43.2373 160.494 42.5973 160.409 42C160.409 41.3173 160.409 40.6773 160.409 40.08C160.324 39.056 160.238 38.032 160.153 37.008C160.068 35.984 159.982 35.0027 159.897 34.064C159.897 33.8933 159.854 33.7227 159.769 33.552C159.769 33.3813 159.769 33.2533 159.769 33.168C159.769 32.144 159.726 31.12 159.641 30.096C159.556 29.072 159.47 28.0053 159.385 26.896L159.001 23.312C158.745 21.9467 158.702 20.4533 158.873 18.832C158.873 18.064 159.172 17.424 159.769 16.912C159.94 16.7413 160.068 16.656 160.153 16.656C160.238 16.5707 160.324 16.4853 160.409 16.4C160.836 16.3147 161.049 16.016 161.049 15.504C161.049 15.3333 161.22 15.248 161.561 15.248H162.201C162.286 15.248 162.329 15.248 162.329 15.248C162.414 15.1627 162.5 15.12 162.585 15.12C162.756 15.0347 162.884 14.9493 162.969 14.864C163.14 14.6933 163.268 14.608 163.353 14.608C163.524 14.608 163.694 14.6507 163.865 14.736C164.036 14.736 164.206 14.7787 164.377 14.864C164.548 14.864 164.676 14.8213 164.761 14.736C165.188 14.6507 165.614 14.6933 166.041 14.864C166.553 14.9493 166.98 15.0773 167.321 15.248C167.833 15.3333 168.217 15.6747 168.473 16.272C168.729 17.04 168.942 17.808 169.113 18.576C169.369 19.2587 169.54 19.984 169.625 20.752V21.776C169.796 22.3733 169.881 23.0133 169.881 23.696C169.881 24.2933 169.881 24.9333 169.881 25.616C169.881 26.2133 169.881 26.8107 169.881 27.408C169.966 27.92 170.052 28.432 170.137 28.944C170.137 29.2 170.137 29.456 170.137 29.712C170.137 29.968 170.18 30.224 170.265 30.48C170.265 30.992 170.265 31.504 170.265 32.016C170.35 32.528 170.436 33.0827 170.521 33.68C170.606 34.6187 170.692 35.6 170.777 36.624C170.862 37.648 170.905 38.672 170.905 39.696C170.905 40.1227 170.905 40.592 170.905 41.104C170.905 41.5307 170.948 41.9573 171.033 42.384C171.118 42.64 171.161 42.896 171.161 43.152C171.161 43.408 171.161 43.664 171.161 43.92V46.48C171.161 46.992 171.204 47.4187 171.289 47.76C171.46 48.3573 171.502 48.9547 171.417 49.552C171.417 50.064 171.46 50.6187 171.545 51.216L171.929 57.104C172.014 57.9573 172.057 58.8533 172.057 59.792C172.142 60.6453 172.185 61.5413 172.185 62.48C172.185 62.8213 172.185 63.2053 172.185 63.632C172.185 63.9733 172.228 64.3147 172.313 64.656C172.398 64.912 172.441 65.168 172.441 65.424C172.441 65.68 172.441 65.936 172.441 66.192C172.526 66.2773 172.526 66.448 172.441 66.704C172.441 66.8747 172.484 67.0453 172.569 67.216C172.74 67.8133 172.825 68.4107 172.825 69.008C172.825 69.6053 172.825 70.2453 172.825 70.928C172.825 71.2693 172.825 71.6533 172.825 72.08C172.91 72.4213 172.953 72.8053 172.953 73.232C173.038 73.6587 173.081 74.128 173.081 74.64C173.081 75.152 173.081 75.6213 173.081 76.048C173.166 76.4747 173.209 76.944 173.209 77.456C173.209 77.8827 173.252 78.3093 173.337 78.736C173.422 78.9067 173.465 79.0773 173.465 79.248C173.465 80.1867 173.55 81.1253 173.721 82.064C173.892 83.0027 174.062 83.9413 174.233 84.88C174.318 85.136 174.361 85.4347 174.361 85.776C174.361 86.032 174.361 86.288 174.361 86.544C174.361 86.8 174.276 87.0133 174.105 87.184C173.764 87.44 173.508 87.952 173.337 88.72C173.337 88.976 173.209 89.1893 172.953 89.36C172.356 89.616 171.844 89.9573 171.417 90.384C170.734 90.9813 169.924 91.28 168.985 91.28ZM191.975 101.52C191.89 101.52 191.591 101.435 191.079 101.264C190.823 101.179 190.524 100.88 190.183 100.368C190.098 100.112 190.012 99.856 189.927 99.6C189.842 99.344 189.799 99.088 189.799 98.832C189.543 97.552 189.415 96.272 189.415 94.992V86.16C189.415 85.392 189.33 84.624 189.159 83.856C188.988 83.088 188.818 82.32 188.647 81.552C188.647 81.3813 188.562 81.1253 188.391 80.784C188.306 80.528 188.178 80.272 188.007 80.016C187.836 79.6747 187.666 79.376 187.495 79.12C187.154 78.5227 186.898 77.8827 186.727 77.2C186.556 76.5173 186.428 75.8773 186.343 75.28C186.258 74.3413 186.258 73.4453 186.343 72.592C186.514 72.08 186.642 71.6107 186.727 71.184C186.812 70.672 186.94 70.2027 187.111 69.776C187.367 69.0933 187.58 68.4107 187.751 67.728C187.922 66.96 188.135 66.192 188.391 65.424L190.311 59.152C190.908 57.36 191.676 55.5253 192.615 53.648C193.554 51.856 194.45 49.8507 195.303 47.632C195.474 47.12 195.687 46.5653 195.943 45.968C196.284 45.0293 196.626 44.1333 196.967 43.28C197.394 42.3413 197.778 41.4453 198.119 40.592L200.039 35.216C200.21 34.8747 200.338 34.5333 200.423 34.192C200.508 33.8507 200.594 33.5093 200.679 33.168C201.362 31.4613 202.044 29.84 202.727 28.304C203.239 27.28 203.58 26.1707 203.751 24.976C203.922 23.7813 203.922 22.5867 203.751 21.392C203.666 20.88 203.58 20.368 203.495 19.856C203.495 19.2587 203.495 18.704 203.495 18.192C203.495 17.936 203.41 17.7227 203.239 17.552C203.154 17.296 203.154 17.04 203.239 16.784C203.324 16.6133 203.41 16.4427 203.495 16.272C203.666 16.1013 203.794 15.9307 203.879 15.76C204.135 14.8213 204.519 14.0107 205.031 13.328C205.628 12.56 206.268 11.8773 206.951 11.28C207.292 10.9387 207.762 10.6827 208.359 10.512C208.7 10.3413 208.999 10.1707 209.255 10C209.596 9.82933 209.895 9.61599 210.151 9.35999C210.578 9.01866 211.047 8.80533 211.559 8.71999C212.242 8.63466 212.967 8.37866 213.735 7.952C214.418 7.52533 215.186 7.39733 216.039 7.56799H217.191C217.788 7.56799 218.428 7.78133 219.111 8.20799C219.282 8.29333 219.452 8.42133 219.623 8.592C219.879 8.67733 220.135 8.80533 220.391 8.976C221.074 9.488 221.415 10.128 221.415 10.896C221.415 11.4933 221.458 12.048 221.543 12.56C221.714 13.072 221.842 13.6267 221.927 14.224C222.098 14.736 222.098 15.2907 221.927 15.888C221.842 16.0587 221.799 16.272 221.799 16.528C221.799 16.6987 221.756 16.8693 221.671 17.04C221.671 17.3813 221.628 17.7227 221.543 18.064C221.543 18.4053 221.5 18.7467 221.415 19.088C221.159 19.6853 221.244 20.2827 221.671 20.88C222.354 21.9893 222.951 23.1413 223.463 24.336C224.06 25.5307 224.658 26.7253 225.255 27.92L227.559 32.016C228.242 33.1253 228.924 34.448 229.607 35.984C229.778 36.24 229.906 36.496 229.991 36.752C230.162 37.008 230.332 37.264 230.503 37.52C230.759 37.9467 230.972 38.416 231.143 38.928C231.399 39.44 231.655 39.952 231.911 40.464C232.594 41.744 233.148 43.0667 233.575 44.432C234.087 45.712 234.599 47.0773 235.111 48.528C235.111 48.6133 235.111 48.6987 235.111 48.784C235.196 48.784 235.239 48.8267 235.239 48.912C235.324 49.5093 235.751 49.808 236.519 49.808C236.775 49.7227 237.031 49.68 237.287 49.68C237.628 49.68 237.927 49.68 238.183 49.68C239.122 49.68 239.932 49.8507 240.615 50.192C241.042 50.2773 241.468 50.5333 241.895 50.96C242.578 51.6427 243.047 52.1973 243.303 52.624C243.559 53.0507 243.73 53.6907 243.815 54.544C244.156 56.1653 243.815 57.5733 242.791 58.768L242.023 59.408C241.852 59.5787 241.639 59.7493 241.383 59.92C241.127 60.0053 240.914 60.1333 240.743 60.304C240.316 60.6453 240.06 60.9013 239.975 61.072C239.975 61.2427 240.103 61.6267 240.359 62.224L242.279 66.832C243.047 68.5387 243.815 70.2453 244.583 71.952C245.436 73.6587 246.29 75.3653 247.143 77.072C247.484 77.6693 247.74 78.2667 247.911 78.864C248.167 79.4613 248.338 80.1013 248.423 80.784C248.508 81.296 248.508 81.808 248.423 82.32C248.423 82.832 248.38 83.344 248.295 83.856C248.295 83.9413 248.21 84.24 248.039 84.752C247.783 85.0933 247.527 85.4347 247.271 85.776C247.1 86.1173 246.887 86.4587 246.631 86.8C245.948 87.7387 245.394 88.8053 244.967 90C244.796 90.768 244.242 91.3653 243.303 91.792C242.791 92.048 242.236 92.048 241.639 91.792C240.871 91.536 240.359 91.024 240.103 90.256L239.847 89.616C239.591 88.7627 239.207 87.952 238.695 87.184C238.354 86.5867 238.012 85.9893 237.671 85.392C237.415 84.7093 237.116 84.0693 236.775 83.472C236.69 83.3013 236.647 83.1733 236.647 83.088C236.647 82.9173 236.604 82.7893 236.519 82.704C236.434 82.192 236.263 81.7227 236.007 81.296C235.836 80.784 235.623 80.3147 235.367 79.888C234.855 78.608 234.3 77.3707 233.703 76.176C233.191 74.896 232.636 73.616 232.039 72.336L230.119 68.24C230.034 67.984 229.948 67.728 229.863 67.472C229.778 67.1307 229.65 66.7893 229.479 66.448L227.943 62.992C227.943 62.8213 227.858 62.5653 227.687 62.224C227.26 61.5413 226.706 61.1573 226.023 61.072C225.426 61.072 224.871 61.0293 224.359 60.944C223.847 60.8587 223.335 60.816 222.823 60.816C221.458 60.816 220.092 60.944 218.727 61.2C217.362 61.456 216.082 61.9253 214.887 62.608C213.266 63.5467 211.602 64.144 209.895 64.4C209.554 64.4 209.212 64.4427 208.871 64.528C208.53 64.6133 208.188 64.7413 207.847 64.912C207.335 65.2533 207.036 65.6373 206.951 66.064C206.78 66.576 206.695 66.96 206.695 67.216L206.311 69.008C206.226 69.6053 205.884 70.2027 205.287 70.8C204.86 71.2267 204.263 71.44 203.495 71.44C202.386 71.2693 201.66 70.7147 201.319 69.776C201.234 69.52 201.148 69.264 201.063 69.008C200.978 68.752 200.892 68.4533 200.807 68.112C200.466 68.624 200.423 69.0507 200.679 69.392C200.85 69.7333 200.764 70.032 200.423 70.288C200.252 70.4587 200.21 70.5867 200.295 70.672C200.466 71.0133 200.423 71.312 200.167 71.568C199.911 71.824 199.826 72.1227 199.911 72.464C199.996 72.6347 199.996 72.848 199.911 73.104C199.484 73.7013 199.186 74.4267 199.015 75.28C199.1 75.6213 198.887 75.8773 198.375 76.048C198.204 76.048 198.119 76.1333 198.119 76.304C197.948 76.56 197.778 76.944 197.607 77.456C197.522 77.8827 197.394 78.352 197.223 78.864C197.138 79.2907 197.01 79.7173 196.839 80.144L196.071 83.344V83.856C196.071 84.624 195.986 85.392 195.815 86.16C195.73 86.8427 195.687 87.568 195.687 88.336L195.303 92.56C195.218 93.1573 195.132 93.7547 195.047 94.352C195.047 95.0347 195.047 95.7173 195.047 96.4C194.962 96.912 194.876 97.3813 194.791 97.808C194.791 98.32 194.706 98.832 194.535 99.344C194.364 100.112 194.066 100.667 193.639 101.008C193.298 101.52 192.743 101.691 191.975 101.52ZM208.615 49.68H208.743C209.596 49.5093 210.407 49.3813 211.175 49.296C211.943 49.2107 212.711 49.1253 213.479 49.04C213.991 48.9547 214.503 48.912 215.015 48.912C215.527 48.8267 216.039 48.784 216.551 48.784H219.239C219.41 48.784 219.58 48.784 219.751 48.784C219.922 48.6987 220.05 48.656 220.135 48.656C220.306 48.656 220.391 48.4853 220.391 48.144C220.135 47.8027 219.922 47.4613 219.751 47.12C219.58 46.7787 219.41 46.4373 219.239 46.096C218.727 44.9013 218.044 43.8773 217.191 43.024C217.106 42.8533 217.02 42.7253 216.935 42.64C216.85 42.4693 216.764 42.2987 216.679 42.128C216.594 41.9573 216.466 41.7867 216.295 41.616C216.21 41.36 216.082 41.1467 215.911 40.976C215.484 40.6347 215.058 40.72 214.631 41.232L214.247 42.256C214.162 42.9387 214.034 43.664 213.863 44.432C213.692 45.1147 213.522 45.7973 213.351 46.48C213.351 46.6507 213.266 46.9067 213.095 47.248C212.924 47.76 212.498 48.144 211.815 48.4C211.218 48.656 210.578 48.5707 209.895 48.144L209.127 47.632C209.127 47.632 209.042 47.632 208.871 47.632C208.7 47.9733 208.615 48.2293 208.615 48.4C208.615 48.5707 208.615 48.7413 208.615 48.912C208.7 49.0827 208.658 49.2533 208.487 49.424C208.316 49.5947 208.359 49.68 208.615 49.68ZM270.119 92.56C268.498 92.7307 267.175 92.2187 266.151 91.024C265.639 90.512 265.17 89.9573 264.743 89.36C264.316 88.7627 263.975 88.1227 263.719 87.44C263.292 86.2453 262.908 85.0507 262.567 83.856C262.226 82.576 261.927 81.3387 261.671 80.144C261.415 79.2053 261.287 78.3093 261.287 77.456C261.202 76.5173 261.074 75.6213 260.903 74.768C260.818 73.8293 260.775 72.8907 260.775 71.952C260.775 71.44 260.775 70.928 260.775 70.416C260.775 69.8187 260.732 69.264 260.647 68.752C260.562 68.4107 260.519 68.112 260.519 67.856C260.519 67.6 260.519 67.3013 260.519 66.96C260.519 65.7653 260.519 64.5707 260.519 63.376C260.519 62.096 260.476 60.8587 260.391 59.664C260.391 58.9813 260.348 58.384 260.263 57.872C260.178 57.2747 260.007 56.6773 259.751 56.08C259.41 55.1413 259.367 54.1173 259.623 53.008C259.623 52.752 259.666 52.5813 259.751 52.496C259.922 51.8987 260.007 51.3013 260.007 50.704C260.092 50.1067 260.092 49.5093 260.007 48.912C259.922 48.4853 259.879 48.0587 259.879 47.632C259.879 47.2053 259.879 46.8213 259.879 46.48C259.794 45.5413 259.751 44.6027 259.751 43.664C259.836 42.64 259.922 41.6587 260.007 40.72C260.092 40.464 260.135 40.208 260.135 39.952C260.135 39.696 260.135 39.44 260.135 39.184C260.05 38.2453 260.05 37.3493 260.135 36.496C260.306 35.6427 260.434 34.7893 260.519 33.936C260.69 32.912 260.86 31.9307 261.031 30.992C261.202 29.968 261.415 28.944 261.671 27.92C261.842 27.4933 261.927 27.024 261.927 26.512C261.927 26 261.927 25.488 261.927 24.976C261.927 24.5493 261.884 24.1227 261.799 23.696C261.799 23.2693 261.799 22.8853 261.799 22.544C261.799 22.288 261.799 22.032 261.799 21.776C261.799 21.52 261.842 21.264 261.927 21.008C262.012 20.752 262.055 20.496 262.055 20.24C262.055 19.984 262.098 19.8133 262.183 19.728C262.439 19.3867 262.652 19.088 262.823 18.832C262.994 18.4907 263.25 18.192 263.591 17.936C264.018 17.68 264.402 17.424 264.743 17.168C265.17 16.912 265.554 16.6987 265.895 16.528C266.322 16.3573 266.663 16.144 266.919 15.888C267.26 15.4613 267.602 15.0773 267.943 14.736C268.37 14.3093 268.711 13.84 268.967 13.328C269.394 12.9013 269.82 12.432 270.247 11.92C270.759 11.3227 271.314 10.8533 271.911 10.512C272.082 10.4267 272.338 10.2133 272.679 9.87199C273.703 8.93333 274.898 8.336 276.263 8.07999C276.519 7.99466 276.732 7.952 276.903 7.952C277.159 7.86666 277.415 7.824 277.671 7.824L278.567 7.43999C279.25 7.184 279.847 7.312 280.359 7.824C280.53 8.07999 280.743 8.33599 280.999 8.592C281.34 8.76266 281.639 8.93333 281.895 9.104C282.578 9.70133 283.218 10.3413 283.815 11.024C284.498 11.7067 285.095 12.4747 285.607 13.328C286.46 14.6933 287.186 16.0587 287.783 17.424C288.466 18.7893 289.106 20.1973 289.703 21.648L292.007 27.152C292.092 27.664 292.306 28.1333 292.647 28.56C293.33 29.84 293.842 31.1627 294.183 32.528C294.524 33.808 294.866 35.1307 295.207 36.496C295.292 36.6667 295.335 36.8373 295.335 37.008C295.42 37.1787 295.463 37.3493 295.463 37.52C295.634 38.2027 295.762 38.928 295.847 39.696C296.018 40.3787 296.06 41.0613 295.975 41.744C296.06 42.512 296.018 43.28 295.847 44.048C295.762 44.7307 295.634 45.4133 295.463 46.096C295.207 46.9493 294.908 47.76 294.567 48.528C294.226 49.2107 293.842 49.936 293.415 50.704C293.244 51.216 292.946 51.6853 292.519 52.112C292.092 52.5387 291.666 52.9227 291.239 53.264C290.556 53.6053 289.874 54.1173 289.191 54.8C289.02 54.9707 288.807 55.0987 288.551 55.184C288.38 55.2693 288.21 55.3973 288.039 55.568C287.442 55.824 286.802 56.1227 286.119 56.464C285.436 56.72 284.754 56.976 284.071 57.232C283.986 57.232 283.943 57.3173 283.943 57.488C283.943 57.5733 283.986 57.6587 284.071 57.744L287.527 60.176C287.954 60.432 288.338 60.688 288.679 60.944C289.02 61.1147 289.362 61.328 289.703 61.584L290.471 61.968C291.495 62.5653 292.519 63.2053 293.543 63.888C294.567 64.5707 295.548 65.2533 296.487 65.936C298.279 67.0453 300.071 68.1973 301.863 69.392C303.655 70.5013 305.362 71.7387 306.983 73.104C308.434 74.2133 309.714 75.4933 310.823 76.944C311.079 77.2 311.335 77.4987 311.591 77.84C311.847 78.096 312.146 78.3093 312.487 78.48L312.871 78.864C314.236 80.0587 315.004 81.68 315.175 83.728C315.175 83.984 315.132 84.24 315.047 84.496C315.047 84.752 315.047 85.008 315.047 85.264C315.047 85.776 314.876 86.2027 314.535 86.544C314.194 86.7147 314.023 86.928 314.023 87.184C313.767 87.7813 313.383 88.208 312.871 88.464C312.444 88.6347 312.018 88.8907 311.591 89.232C311.42 89.3173 311.122 89.36 310.695 89.36C310.183 89.2747 309.628 89.1893 309.031 89.104C308.519 89.0187 308.007 88.976 307.495 88.976C306.812 88.976 306.087 88.6773 305.319 88.08C304.807 87.6533 304.338 87.2693 303.911 86.928C303.484 86.5013 303.058 85.9893 302.631 85.392C301.522 83.856 300.071 82.448 298.279 81.168C297.426 80.4853 296.615 79.8453 295.847 79.248C295.079 78.6507 294.226 78.096 293.287 77.584C292.69 77.2427 292.092 76.9013 291.495 76.56C290.983 76.1333 290.386 75.7493 289.703 75.408C287.57 73.9573 285.394 72.5493 283.175 71.184C280.956 69.7333 278.738 68.2827 276.519 66.832C276.178 66.576 275.794 66.32 275.367 66.064C274.94 65.808 274.514 65.552 274.087 65.296C273.916 65.1253 273.66 64.9547 273.319 64.784C272.978 64.784 272.807 64.912 272.807 65.168C272.807 65.2533 272.764 65.3387 272.679 65.424C272.679 65.424 272.679 65.4667 272.679 65.552C272.679 65.808 272.679 66.064 272.679 66.32C272.679 66.576 272.722 66.832 272.807 67.088C272.892 67.7707 272.935 68.4533 272.935 69.136C272.935 69.7333 272.935 70.3733 272.935 71.056C272.935 71.568 272.935 72.08 272.935 72.592C273.02 73.0187 273.106 73.488 273.191 74C273.191 74.256 273.191 74.5547 273.191 74.896C273.276 75.152 273.319 75.408 273.319 75.664C273.234 76.432 273.276 77.2 273.447 77.968C273.618 78.736 273.746 79.504 273.831 80.272L274.599 83.6C274.684 83.9413 274.77 84.3253 274.855 84.752C274.94 85.0933 275.026 85.4773 275.111 85.904C275.196 86.2453 275.196 86.5867 275.111 86.928C275.111 87.184 275.068 87.4827 274.983 87.824C274.983 87.9093 274.898 88.0373 274.727 88.208C274.3 88.2933 274.002 88.592 273.831 89.104C273.575 89.7013 273.191 90.2133 272.679 90.64C272.252 91.152 271.783 91.6213 271.271 92.048C271.186 92.1333 271.015 92.2187 270.759 92.304C270.503 92.3893 270.29 92.4747 270.119 92.56ZM275.111 47.76H275.367C276.306 47.5893 277.244 47.4187 278.183 47.248C279.207 46.992 280.188 46.6933 281.127 46.352C282.066 46.096 282.876 45.6267 283.559 44.944C284.156 44.3467 284.455 43.664 284.455 42.896C284.54 42.2987 284.54 41.744 284.455 41.232C284.455 40.6347 284.37 40.0373 284.199 39.44C283.858 37.904 283.474 36.4107 283.047 34.96C282.62 33.424 282.108 31.9733 281.511 30.608L280.359 27.536C280.103 26.6827 279.804 25.872 279.463 25.104C279.122 24.2507 278.738 23.44 278.311 22.672C278.226 22.5013 278.14 22.3307 278.055 22.16C277.97 21.904 277.884 21.6907 277.799 21.52L277.287 21.008C277.031 20.6667 276.732 20.6667 276.391 21.008C276.306 21.008 276.178 21.0933 276.007 21.264C275.41 22.032 274.855 22.8427 274.343 23.696C273.916 24.5493 273.66 25.488 273.575 26.512C273.49 26.8533 273.404 27.1947 273.319 27.536C273.319 27.8773 273.319 28.2613 273.319 28.688V34.192C273.234 35.3867 273.191 36.624 273.191 37.904C273.276 39.184 273.234 40.4213 273.063 41.616C272.978 41.872 272.935 42.128 272.935 42.384C273.02 42.64 273.063 42.896 273.063 43.152C273.148 43.664 273.191 44.176 273.191 44.688C273.191 45.1147 273.191 45.584 273.191 46.096C273.191 46.9493 273.276 47.4613 273.447 47.632C273.703 47.8027 274.258 47.8453 275.111 47.76ZM345.875 89.872C345.704 89.7867 345.448 89.744 345.107 89.744C344.936 89.744 344.766 89.616 344.595 89.36C344.424 89.104 344.254 88.8907 344.083 88.72C343.912 88.464 343.742 88.1653 343.571 87.824C343.315 87.4827 343.102 87.4827 342.931 87.824H342.675C342.675 87.7387 342.632 87.696 342.547 87.696C342.547 87.6107 342.547 87.568 342.547 87.568C342.291 86.3733 341.907 85.264 341.395 84.24C341.139 83.5573 340.883 82.8747 340.627 82.192C340.456 81.424 340.328 80.656 340.243 79.888L339.475 74.256L339.091 69.648V69.392C338.92 68.368 338.835 67.344 338.835 66.32C338.835 65.2107 338.835 64.1013 338.835 62.992C338.75 62.3947 338.707 61.84 338.707 61.328C338.707 60.7307 338.664 60.1333 338.579 59.536C338.494 58.8533 338.408 58.1707 338.323 57.488C338.323 56.8053 338.323 56.1653 338.323 55.568L338.451 45.456V31.76C338.28 31.248 338.024 30.992 337.683 30.992C337.512 30.992 337.299 31.0347 337.043 31.12C336.872 31.12 336.702 31.12 336.531 31.12L330.771 32.656C330.003 32.912 329.235 33.168 328.467 33.424C327.699 33.5947 326.931 33.808 326.163 34.064C325.566 34.1493 324.968 34.2347 324.371 34.32C323.859 34.32 323.304 34.32 322.707 34.32C322.28 34.32 321.811 34.1493 321.299 33.808C320.702 33.552 320.19 33.2107 319.763 32.784C319.336 32.3573 318.91 31.888 318.483 31.376L318.227 30.992C318.056 30.3947 317.886 29.84 317.715 29.328C317.63 28.7307 317.63 28.1333 317.715 27.536C317.8 26.768 317.971 26.0427 318.227 25.36C318.568 24.6773 319.038 24.08 319.635 23.568C319.891 23.3973 320.104 23.184 320.275 22.928C320.531 22.672 320.787 22.416 321.043 22.16C321.384 21.9893 321.598 21.904 321.683 21.904C322.195 21.904 322.664 21.8187 323.091 21.648C323.518 21.392 323.944 21.2213 324.371 21.136C324.798 21.0507 325.224 20.9653 325.651 20.88C326.078 20.7947 326.504 20.7093 326.931 20.624C328.126 20.2827 329.32 19.984 330.515 19.728C331.71 19.3867 332.904 19.1307 334.099 18.96L341.011 17.808C341.182 17.7227 341.31 17.68 341.395 17.68C341.566 17.68 341.694 17.6373 341.779 17.552C342.291 17.3813 342.803 17.2533 343.315 17.168C343.827 17.0827 344.339 17.1253 344.851 17.296C345.022 17.3813 345.15 17.424 345.235 17.424C345.406 17.3387 345.534 17.296 345.619 17.296C347.07 17.1253 348.52 16.9547 349.971 16.784C351.422 16.6133 352.83 16.4 354.195 16.144C355.304 15.9733 356.414 15.8027 357.523 15.632C358.632 15.4613 359.742 15.3333 360.851 15.248C361.704 15.0773 362.558 14.9493 363.411 14.864C364.264 14.7787 365.118 14.6933 365.971 14.608C366.654 14.5227 367.336 14.4373 368.019 14.352C368.787 14.2667 369.512 14.1813 370.195 14.096C370.878 14.0107 371.518 14.0107 372.115 14.096C372.798 14.096 373.48 14.096 374.163 14.096C374.59 14.096 374.974 14.224 375.315 14.48C375.742 14.736 376.126 14.9493 376.467 15.12C376.808 15.376 377.278 15.8027 377.875 16.4C378.046 16.5707 378.216 16.9547 378.387 17.552C378.472 17.808 378.558 18.1067 378.643 18.448C378.728 18.704 378.814 19.0027 378.899 19.344C379.07 20.112 378.984 20.8373 378.643 21.52L377.875 23.312C377.79 23.568 377.662 23.824 377.491 24.08C377.406 24.2507 377.278 24.4213 377.107 24.592C376.936 24.7627 376.851 24.848 376.851 24.848C376.51 25.104 376.126 25.36 375.699 25.616C375.358 25.872 374.931 26.0427 374.419 26.128L368.915 26.512C368.403 26.512 367.891 26.5547 367.379 26.64C366.867 26.64 366.312 26.6827 365.715 26.768H365.075C363.71 26.8533 362.387 26.9813 361.107 27.152C359.827 27.3227 358.547 27.4933 357.267 27.664L352.147 28.432C351.891 28.432 351.72 28.4747 351.635 28.56C351.294 28.56 351.038 28.816 350.867 29.328V29.712C350.867 30.5653 350.867 31.4187 350.867 32.272C350.867 33.04 350.91 33.8507 350.995 34.704C351.251 35.8987 351.251 37.0933 350.995 38.288C350.91 38.544 350.824 38.8 350.739 39.056C350.739 39.2267 350.739 39.3973 350.739 39.568C350.824 40.592 350.739 41.7013 350.483 42.896C350.483 43.152 350.483 43.408 350.483 43.664C350.483 43.92 350.526 44.176 350.611 44.432C350.696 44.7733 350.739 45.1573 350.739 45.584C350.739 46.0107 350.739 46.4373 350.739 46.864V53.52C350.739 53.8613 350.696 54.288 350.611 54.8C350.611 55.2267 350.611 55.6533 350.611 56.08C350.611 56.4213 350.611 56.8053 350.611 57.232C350.696 57.6587 350.739 58.0853 350.739 58.512C350.739 59.1093 350.739 59.7067 350.739 60.304C350.824 60.9013 350.824 61.5413 350.739 62.224V66.192C350.739 66.2773 350.696 66.3627 350.611 66.448C350.611 66.5333 350.654 66.6613 350.739 66.832C350.824 67.6 350.867 68.4107 350.867 69.264C350.867 70.032 350.952 70.8 351.123 71.568C351.123 71.824 351.123 72.08 351.123 72.336C351.208 72.592 351.208 72.848 351.123 73.104C351.123 73.872 351.208 74.6827 351.379 75.536C351.55 76.304 351.678 77.072 351.763 77.84C351.934 78.7787 352.104 79.7173 352.275 80.656C352.531 81.5947 352.744 82.5333 352.915 83.472L353.299 85.264C353.299 85.52 353.171 85.7333 352.915 85.904C352.915 85.904 352.872 85.904 352.787 85.904C352.787 85.904 352.744 85.9467 352.659 86.032C352.232 86.2027 352.062 86.4587 352.147 86.8V87.44C352.147 87.44 352.104 87.4827 352.019 87.568C352.019 87.6533 351.976 87.696 351.891 87.696C351.464 87.696 351.123 87.8667 350.867 88.208C350.611 88.5493 350.312 88.848 349.971 89.104C349.715 89.2747 349.374 89.4453 348.947 89.616C347.838 90.0427 346.814 90.128 345.875 89.872Z" fill="black"/>
</svg>
